<svg xmlns="http://www.w3.org/2000/svg" viewBox="0 0 104 104"><defs><style>.cls-1{fill:#333;}.cls-2{fill:#fff;}</style></defs><title>acabamentos-cinza</title><g id="Layer_2" data-name="Layer 2"><g id="Layer_1-2" data-name="Layer 1"><rect class="cls-1" width="104" height="104" rx="52"/><polygon class="cls-2" points="52.3 52.44 50.15 52.44 50.15 40.47 35 35.53 35 26.44 67.45 26.44 67.45 30.35 65.31 30.35 65.31 28.59 37.14 28.59 37.14 33.97 52.3 38.91 52.3 52.44"/><rect class="cls-2" x="38.04" y="23.6" width="26.42" height="7.83"/><rect class="cls-2" x="48.54" y="45.26" width="5.36" height="12.63"/><path class="cls-2" d="M24.89,78.29l-.34-1.7h-2l-.34,1.7H20.82l2.1-8.54h1.3l2.08,8.54Zm-1.33-6.48-.73,3.57h1.46Z"/><path class="cls-2" d="M30.5,77.84a2.26,2.26,0,0,1-3.13-.19C26.8,77,26.74,76,26.74,74s.06-3,.63-3.64A2,2,0,0,1,29,69.65a2,2,0,0,1,1.5.55,2.57,2.57,0,0,1,.69,1.8H29.86a1.64,1.64,0,0,0-.2-.83.68.68,0,0,0-.64-.31.67.67,0,0,0-.63.33,6.39,6.39,0,0,0-.3,2.83,6.44,6.44,0,0,0,.3,2.83.8.8,0,0,0,1.27,0,1.71,1.71,0,0,0,.2-.84h1.35A2.57,2.57,0,0,1,30.5,77.84Z"/><path class="cls-2" d="M35.63,78.29l-.34-1.7h-2L33,78.29H31.56l2.1-8.54H35L37,78.29ZM34.3,71.81l-.73,3.57H35Z"/><path class="cls-2" d="M41.63,77.75a2.21,2.21,0,0,1-1.68.54H37.83V69.75H40A1.92,1.92,0,0,1,42.16,72a1.92,1.92,0,0,1-.49,1.49,1.27,1.27,0,0,1-.44.3,1.76,1.76,0,0,1,.46.31,2.25,2.25,0,0,1,.5,1.72A2.4,2.4,0,0,1,41.63,77.75ZM39.85,71h-.67v2.31h.67c.69,0,1-.35,1-1.16S40.54,71,39.85,71Zm0,3.45h-.64v2.66h.64c.72,0,1-.33,1-1.33S40.54,74.41,39.82,74.41Z"/><path class="cls-2" d="M46.85,78.29l-.34-1.7h-2l-.34,1.7H42.78l2.1-8.54h1.3l2.08,8.54Zm-1.33-6.48-.73,3.57h1.46Z"/><path class="cls-2" d="M53.44,78.29V73l-1.16,3.5h-.75L50.4,73v5.27H49.05V69.75h1.21l1.66,4.48,1.64-4.48h1.22v8.54Z"/><path class="cls-2" d="M56.23,78.29V69.75h3.58V71H57.57v2.42H59.5v1.21H57.57v2.48h2.24v1.22Z"/><path class="cls-2" d="M64.34,78.29l-2-5.08v5.08H61V69.75h1.2l2,5.07V69.75h1.34v8.54Z"/><path class="cls-2" d="M69.27,71v7.33H67.93V71H66.5V69.75h4.21V71Z"/><path class="cls-2" d="M75.27,77.65a2.24,2.24,0,0,1-3.31,0C71.4,77,71.34,76,71.34,74s.06-3,.62-3.64a2.24,2.24,0,0,1,3.31,0c.57.67.62,1.61.62,3.64S75.84,77,75.27,77.65Zm-1-6.46a.69.69,0,0,0-.65-.33.67.67,0,0,0-.63.33,6.72,6.72,0,0,0-.3,2.83,6.78,6.78,0,0,0,.3,2.83.68.68,0,0,0,.63.32.71.71,0,0,0,.65-.32A6.84,6.84,0,0,0,74.55,74,6.78,6.78,0,0,0,74.26,71.19Z"/><path class="cls-2" d="M80.68,77.81a2.38,2.38,0,0,1-1.67.56,2.25,2.25,0,0,1-1.65-.56A2.37,2.37,0,0,1,76.81,76h1.34a1.37,1.37,0,0,0,.24,1,.81.81,0,0,0,.62.23.8.8,0,0,0,.65-.24,1.38,1.38,0,0,0,.23-1c0-.91-.14-1.14-.8-1.4l-1-.42c-.87-.36-1.19-.83-1.19-2.15a2.35,2.35,0,0,1,.69-1.81A2.21,2.21,0,0,1,79,69.67a2.08,2.08,0,0,1,1.53.52,2.41,2.41,0,0,1,.6,1.86H79.83a1.42,1.42,0,0,0-.2-.91.71.71,0,0,0-.6-.26.73.73,0,0,0-.58.24,1.26,1.26,0,0,0-.23.84c0,.7.11.92.71,1.16l1,.4c1,.42,1.29,1,1.29,2.4A2.45,2.45,0,0,1,80.68,77.81Z"/></g></g></svg>