<svg xmlns="http://www.w3.org/2000/svg" viewBox="0 0 132 51.59"><defs><style>.cls-1{fill:#fff;}</style></defs><title>facebook-branco_1</title><g id="Layer_2" data-name="Layer 2"><g id="Layer_1-2" data-name="Layer 1"><path class="cls-1" d="M51.91,26a26,26,0,1,0-30,25.64V33.46H15.31V26H21.9V20.24c0-6.51,3.87-10.1,9.8-10.1a39.68,39.68,0,0,1,5.81.51V17H34.24C31,17,30,19,30,21.08V26h7.2l-1.15,7.51H30V51.59A26,26,0,0,0,51.91,26Z"/><path class="cls-1" d="M68.89,23.17V27h3v1.92h-3v5.85H66.76V21.26h5.68v1.91Z"/><path class="cls-1" d="M78.54,34.78,78,32.1H74.85l-.53,2.68H72.08L75.4,21.26h2.07l3.29,13.52ZM76.43,24.52l-1.16,5.66h2.32Z"/><path class="cls-1" d="M87.41,34.08a3.16,3.16,0,0,1-2.34.85,3.2,3.2,0,0,1-2.62-1.16c-.89-1.06-1-2.54-1-5.75s.1-4.69,1-5.76a3.23,3.23,0,0,1,2.62-1.16,3.27,3.27,0,0,1,2.38.88,4,4,0,0,1,1.08,2.85H86.4a2.49,2.49,0,0,0-.32-1.31,1.25,1.25,0,0,0-2,0c-.42.64-.48,2-.48,4.48s.06,3.84.48,4.48a1.07,1.07,0,0,0,1,.52,1.09,1.09,0,0,0,1-.5,2.64,2.64,0,0,0,.32-1.33h2.13A4.08,4.08,0,0,1,87.41,34.08Z"/><path class="cls-1" d="M90.32,34.78V21.26H96v1.91H92.45V27h3v1.92h-3v3.93H96v1.92Z"/><path class="cls-1" d="M103.86,33.93a3.5,3.5,0,0,1-2.65.85H97.84V21.26h3.38a3.45,3.45,0,0,1,2.63.83,3.43,3.43,0,0,1,.85,2.77,3.08,3.08,0,0,1-.78,2.36,2.23,2.23,0,0,1-.7.48,2.65,2.65,0,0,1,.74.49,3.56,3.56,0,0,1,.78,2.72C104.74,32.5,104.51,33.26,103.86,33.93ZM101,23.17H100v3.67H101c1.11,0,1.54-.55,1.54-1.84S102.14,23.17,101,23.17Zm0,5.48h-1v4.21h1c1.14,0,1.61-.53,1.61-2.11S102.14,28.65,101,28.65Z"/><path class="cls-1" d="M112.59,33.77a3.55,3.55,0,0,1-5.25,0c-.89-1.08-1-2.54-1-5.75s.1-4.67,1-5.76a3.55,3.55,0,0,1,5.25,0c.91,1.07,1,2.55,1,5.76S113.5,32.71,112.59,33.77ZM111,23.54a1.11,1.11,0,0,0-1-.52,1.07,1.07,0,0,0-1,.52c-.4.64-.48,2-.48,4.48s.08,3.84.48,4.48a1.07,1.07,0,0,0,1,.52,1.11,1.11,0,0,0,1-.52c.4-.64.46-2,.46-4.48S111.39,24.18,111,23.54Z"/><path class="cls-1" d="M121.46,33.77a3.55,3.55,0,0,1-5.25,0c-.89-1.08-1-2.54-1-5.75s.09-4.67,1-5.76a3.55,3.55,0,0,1,5.25,0c.91,1.07,1,2.55,1,5.76S122.37,32.71,121.46,33.77Zm-1.6-10.23a1.11,1.11,0,0,0-1-.52,1.08,1.08,0,0,0-1,.52c-.4.64-.48,2-.48,4.48s.08,3.84.48,4.48a1.08,1.08,0,0,0,1,.52,1.11,1.11,0,0,0,1-.52c.4-.64.46-2,.46-4.48S120.26,24.18,119.86,23.54Z"/><path class="cls-1" d="M129.7,34.78l-2.18-5.56-1,2.09v3.47h-2.12V21.26h2.12v6.36l3-6.36h2.14l-2.71,5.6L132,34.78Z"/></g></g></svg>