<svg xmlns="http://www.w3.org/2000/svg" viewBox="0 0 103.43 104"><defs><style>.cls-1{fill:#c6021a;}.cls-2{fill:#fff;}</style></defs><title>plantas-vermelho</title><g id="Layer_2" data-name="Layer 2"><g id="Layer_1-2" data-name="Layer 1"><path class="cls-1" d="M51.71,104c-71.33-4-66.53-102.15,0-104C123,4,118.25,102.15,51.71,104Z"/><polygon class="cls-2" points="66.73 34.01 65.26 34.01 65.26 30.82 68.45 30.82 68.45 32.29 66.73 32.29 66.73 34.01"/><path class="cls-2" d="M63.49,56.87H58.64V55.4h4.85Zm-9.69,0H49V55.4H53.8Zm-9.69,0H39.26V55.4h4.85ZM37.48,53.4H36V48.56h1.47Zm29.25,0H65.26V48.55h1.47ZM37.48,43.71H36V38.86h1.47Zm29.25,0H65.26V38.86h1.47Z"/><polygon class="cls-2" points="37.48 34.01 36.01 34.01 36.01 32.29 34.29 32.29 34.29 30.82 37.48 30.82 37.48 34.01"/><path class="cls-2" d="M74.21,32.29h-1.1V30.82H74l-1.34-.94.84-1.21L75,29.74a1.36,1.36,0,0,1,.6,1.14A1.39,1.39,0,0,1,74.21,32.29Zm-44.57,0h-.42a1.4,1.4,0,0,1-.82-2.54l2.07-1.49.86,1.19-1.89,1.37h.2Zm39.19-5.08L65,24.55l.84-1.21L69.67,26Zm-33.72-.48-.87-1.19L38,22.82l.86,1.2Zm26.1-4.85-3.82-2.67.85-1.2,3.81,2.66ZM42.65,21.3l-.86-1.2,3.77-2.72.87,1.2Zm10.93-4.75-.94-.66a2.12,2.12,0,0,0-1.24-.39h0a2.19,2.19,0,0,0-1.22.37l-.82-1.22a3.61,3.61,0,0,1,2-.63h0a3.65,3.65,0,0,1,2.09.66l.94.66Z"/><path class="cls-2" d="M32.52,71.69h-.8V75H30.37V66.5h2.15c1.55,0,2.19.81,2.19,2.6S34.07,71.69,32.52,71.69Zm-.05-4h-.75v2.77h.75c.72,0,.9-.52.9-1.38S33.19,67.71,32.47,67.71Z"/><path class="cls-2" d="M35.88,75V66.5h1.34v7.33h2.25V75Z"/><path class="cls-2" d="M44.19,75l-.34-1.69h-2L41.53,75H40.12l2.1-8.54h1.3L45.6,75Zm-1.33-6.48-.73,3.58H43.6Z"/><path class="cls-2" d="M49.75,75l-2-5.08V75H46.39V66.5h1.2l2,5.07V66.5h1.35V75Z"/><path class="cls-2" d="M54.68,67.71V75H53.34V67.71H51.91V66.5h4.21v1.21Z"/><path class="cls-2" d="M60,75l-.34-1.69h-2L57.37,75H56l2.1-8.54h1.3L61.44,75ZM58.7,68.56,58,72.14h1.46Z"/><path class="cls-2" d="M65.87,74.56a2.4,2.4,0,0,1-1.67.56,2.28,2.28,0,0,1-1.66-.56A2.4,2.4,0,0,1,62,72.72h1.35a1.3,1.3,0,0,0,.24,1,.81.81,0,0,0,.62.23.8.8,0,0,0,.65-.24,1.36,1.36,0,0,0,.22-1c0-.91-.14-1.14-.8-1.4l-1-.42c-.86-.36-1.19-.83-1.19-2.15a2.34,2.34,0,0,1,.7-1.81,2.46,2.46,0,0,1,3,0,2.46,2.46,0,0,1,.6,1.86H65a1.42,1.42,0,0,0-.2-.91.82.82,0,0,0-1.17,0,1.26,1.26,0,0,0-.23.84c0,.69.11.91.71,1.15l1,.41c1,.42,1.3,1,1.3,2.4A2.44,2.44,0,0,1,65.87,74.56Z"/><path class="cls-2" d="M69.74,75V66.5h3.59v1.21H71.09v2.42H73v1.21H71.09v2.49h2.24V75Z"/><path class="cls-2" d="M31.47,86.09h-.8v3.35H29.32V80.9h2.15c1.55,0,2.19.81,2.19,2.6S33,86.09,31.47,86.09Zm0-4h-.75v2.77h.75c.72,0,.9-.52.9-1.38S32.14,82.11,31.42,82.11Z"/><path class="cls-2" d="M38.05,89.44l-1.12-3.5h-.76v3.5H34.83V80.9H37c1.56,0,2.18.75,2.18,2.52,0,1-.21,1.81-1,2.23l1.27,3.79Zm-1-7.33h-.83v2.61H37c.72,0,.83-.6.83-1.3S37.72,82.11,37,82.11Z"/><path class="cls-2" d="M40.57,89.44V80.9h3.58v1.21H41.91v2.42h1.93v1.21H41.91v2.49h2.24v1.21Z"/><path class="cls-2" d="M48.84,89a2,2,0,0,1-1.47.54,2,2,0,0,1-1.66-.73c-.56-.67-.62-1.61-.62-3.63s.06-3,.62-3.64a2,2,0,0,1,1.66-.73,2.06,2.06,0,0,1,1.5.55,2.52,2.52,0,0,1,.68,1.8H48.21a1.58,1.58,0,0,0-.2-.82.68.68,0,0,0-.64-.32.71.71,0,0,0-.64.33,6.58,6.58,0,0,0-.3,2.83,6.58,6.58,0,0,0,.3,2.83A.81.81,0,0,0,48,88a1.71,1.71,0,0,0,.2-.84h1.34A2.49,2.49,0,0,1,48.84,89Zm-1.67,2.78h-.92L47,89.92h.81Z"/><path class="cls-2" d="M54,89.44l-.35-1.69h-2l-.33,1.69H49.9L52,80.9h1.31l2.07,8.54ZM52.65,83l-.73,3.58h1.46ZM53,80.32h-.89L53,78.66H54Z"/><path class="cls-2" d="M59.39,89.44l-1.11-3.5h-.76v3.5H56.18V80.9h2.16c1.56,0,2.18.75,2.18,2.52a2.22,2.22,0,0,1-1,2.23l1.28,3.79Zm-1-7.33h-.83v2.61h.83c.72,0,.83-.6.83-1.3S59.07,82.11,58.35,82.11Z"/><path class="cls-2" d="M61.91,89.44V80.9h1.35v8.54Z"/><path class="cls-2" d="M68.4,88.8a2,2,0,0,1-1.65.73,2,2,0,0,1-1.66-.73c-.56-.68-.62-1.61-.62-3.63s.06-3,.62-3.64a2,2,0,0,1,1.66-.73,2,2,0,0,1,1.65.73c.58.68.63,1.61.63,3.64S69,88.13,68.4,88.8Zm-1-6.46a.72.72,0,0,0-.65-.33.71.71,0,0,0-.64.33,6.75,6.75,0,0,0-.3,2.83,6.75,6.75,0,0,0,.3,2.83.7.7,0,0,0,.64.32A.72.72,0,0,0,67.4,88a6.88,6.88,0,0,0,.28-2.83A6.88,6.88,0,0,0,67.4,82.34Z"/><path class="cls-2" d="M73.82,89a2.4,2.4,0,0,1-1.67.56A2.28,2.28,0,0,1,70.49,89a2.4,2.4,0,0,1-.55-1.84h1.35a1.3,1.3,0,0,0,.24,1,.81.81,0,0,0,.62.23.8.8,0,0,0,.65-.24,1.36,1.36,0,0,0,.22-.95c0-.91-.14-1.14-.8-1.4l-1-.42c-.86-.36-1.19-.83-1.19-2.15a2.34,2.34,0,0,1,.7-1.81,2.46,2.46,0,0,1,3,0,2.46,2.46,0,0,1,.6,1.86H73a1.42,1.42,0,0,0-.2-.91.82.82,0,0,0-1.17,0,1.26,1.26,0,0,0-.23.84c0,.69.11.91.71,1.15l1,.41c1,.42,1.3,1,1.3,2.4A2.44,2.44,0,0,1,73.82,89Z"/></g></g></svg>