<svg xmlns="http://www.w3.org/2000/svg" viewBox="0 0 200.71 46.95"><defs><style>.cls-1{fill:#fff;}.cls-2{fill:#519849;}</style></defs><title>ralc</title><g id="Layer_2" data-name="Layer 2"><g id="Layer_1-2" data-name="Layer 1"><path class="cls-1" d="M58.94,22.2V13h3.24a4.45,4.45,0,0,1,1.77.25,1.82,1.82,0,0,1,.87.88,3.14,3.14,0,0,1,.33,1.44,2.76,2.76,0,0,1-.51,1.71,2.21,2.21,0,0,1-1.49.85,4,4,0,0,1,.82.78,11.54,11.54,0,0,1,.86,1.49l.93,1.79H63.93l-1.11-2A12.37,12.37,0,0,0,62,18.84a1,1,0,0,0-.46-.38,2.25,2.25,0,0,0-.77-.11h-.31v3.84Zm1.53-5.31H61.6A4.92,4.92,0,0,0,63,16.78a1,1,0,0,0,.43-.39,1.39,1.39,0,0,0,.15-.69,1.23,1.23,0,0,0-.2-.75.92.92,0,0,0-.58-.36,10.48,10.48,0,0,0-1.12,0H60.47Z"/><path class="cls-1" d="M66.59,22.2V13h5.62v1.55H68.12V16.6h3.8v1.55h-3.8v2.5h4.24V22.2Z"/><path class="cls-1" d="M73.26,19.21,74.75,19a2.38,2.38,0,0,0,.55,1.34,1.76,1.76,0,0,0,2.22.05,1.27,1.27,0,0,0,.38-.89,1,1,0,0,0-.16-.56,1.23,1.23,0,0,0-.55-.4c-.18-.07-.58-.21-1.23-.4a3.86,3.86,0,0,1-1.73-.91,2.69,2.69,0,0,1-.7-1.85,2.78,2.78,0,0,1,.33-1.32,2.27,2.27,0,0,1,1-.94,3.38,3.38,0,0,1,1.5-.32,2.83,2.83,0,0,1,2.14.76,3,3,0,0,1,.76,2l-1.53.08a1.66,1.66,0,0,0-.42-1,1.32,1.32,0,0,0-1-.31,1.54,1.54,0,0,0-1.05.33.75.75,0,0,0-.24.58.79.79,0,0,0,.23.56,3.5,3.5,0,0,0,1.41.61,6.73,6.73,0,0,1,1.65.67,2.35,2.35,0,0,1,.84.93A3.46,3.46,0,0,1,79.07,21a2.44,2.44,0,0,1-1,1,3.59,3.59,0,0,1-1.65.33,2.92,2.92,0,0,1-2.2-.8A3.81,3.81,0,0,1,73.26,19.21Z"/><path class="cls-1" d="M80.4,17.66a7,7,0,0,1,.35-2.36A4.23,4.23,0,0,1,81.46,14a3.14,3.14,0,0,1,1-.83,3.56,3.56,0,0,1,1.63-.36,3.23,3.23,0,0,1,2.69,1.27,5.43,5.43,0,0,1,1,3.51,5.36,5.36,0,0,1-1,3.49,3.48,3.48,0,0,1-5.35,0A5.39,5.39,0,0,1,80.4,17.66ZM82,17.59A4,4,0,0,0,82.57,20a1.8,1.8,0,0,0,2.51.5,1.7,1.7,0,0,0,.5-.5,4,4,0,0,0,.58-2.4,3.89,3.89,0,0,0-.58-2.36A1.87,1.87,0,0,0,83,14.77a2,2,0,0,0-.43.43A4.3,4.3,0,0,0,82,17.59Z"/><path class="cls-1" d="M89,22.2V13.07h1.52v7.58h3.81V22.2Z"/><path class="cls-1" d="M95.41,13h1.53v5A13.13,13.13,0,0,0,97,19.52a1.58,1.58,0,0,0,.47.91,1.43,1.43,0,0,0,1,.34,1.24,1.24,0,0,0,1.38-1.11h0a11.64,11.64,0,0,0,.07-1.56V13h1.53v4.83a14.07,14.07,0,0,1-.13,2.34,2.84,2.84,0,0,1-.45,1.16,2.39,2.39,0,0,1-.89.75,3.17,3.17,0,0,1-1.45.29,3.48,3.48,0,0,1-1.65-.29,2.6,2.6,0,0,1-.89-.79,2.76,2.76,0,0,1-.42-1,13,13,0,0,1-.15-2.34Z"/><path class="cls-1" d="M107.93,18.82l1.48.57a4.24,4.24,0,0,1-1.14,2.24,2.84,2.84,0,0,1-2,.73,3,3,0,0,1-2.49-1.25,5.49,5.49,0,0,1-1-3.42,5.74,5.74,0,0,1,1-3.57,3.08,3.08,0,0,1,2.57-1.27,2.86,2.86,0,0,1,2.26,1,4,4,0,0,1,.78,1.7l-1.5.43a2.13,2.13,0,0,0-.56-1.13,1.46,1.46,0,0,0-1-.41,1.61,1.61,0,0,0-1.37.73,4.2,4.2,0,0,0-.52,2.38A4.56,4.56,0,0,0,104.9,20a1.59,1.59,0,0,0,1.35.74,1.41,1.41,0,0,0,1-.47A3,3,0,0,0,107.93,18.82Zm-3.23,5.9V24a6.33,6.33,0,0,0,1,.07,1,1,0,0,0,.69-.2.52.52,0,0,0,0-.76.75.75,0,0,0-.5-.16,2.28,2.28,0,0,0-.68.13l.14-.62a2,2,0,0,1,.87-.17,1.31,1.31,0,0,1,1,.34,1.25,1.25,0,0,1,0,1.74,2,2,0,0,1-1.44.47A3.69,3.69,0,0,1,104.7,24.72Z"/><path class="cls-1" d="M117.56,22.2h-1.67l-.66-2.09h-3l-.62,2.09H110l3-9.2h1.61Zm-5.06-9.71h-.66v-.23a1.7,1.7,0,0,1,.26-1,.84.84,0,0,1,.69-.36,1.27,1.27,0,0,1,.34,0,3.38,3.38,0,0,1,.58.27,1.59,1.59,0,0,0,.64.23.39.39,0,0,0,.29-.13.71.71,0,0,0,.14-.42h.67a2.21,2.21,0,0,1-.26,1.21.77.77,0,0,1-.66.37,1.41,1.41,0,0,1-.35-.05,6.21,6.21,0,0,1-.59-.26,2.06,2.06,0,0,0-.69-.22.3.3,0,0,0-.26.13A.71.71,0,0,0,112.5,12.49Zm2.23,6.07-1-3.41-1,3.41Z"/><path class="cls-1" d="M118.06,17.66a7,7,0,0,1,.35-2.36,4.56,4.56,0,0,1,.7-1.28,3.26,3.26,0,0,1,1-.83,3.57,3.57,0,0,1,1.64-.36,3.23,3.23,0,0,1,2.68,1.26,5.49,5.49,0,0,1,1,3.51,5.47,5.47,0,0,1-1,3.49,3.49,3.49,0,0,1-5.36,0A5.34,5.34,0,0,1,118.06,17.66Zm1.58-.07a4,4,0,0,0,.59,2.37,1.82,1.82,0,0,0,3,0,4,4,0,0,0,.57-2.4,4,4,0,0,0-.57-2.36,1.84,1.84,0,0,0-3,0,3.94,3.94,0,0,0-.59,2.37Z"/><path class="cls-1" d="M136,22.2h-1.67l-.66-2.09h-3L130,22.2h-1.62l3-9.2H133Zm-2.82-3.64-1.05-3.41-1,3.41Z"/><path class="cls-1" d="M136.85,22.2V13.07h1.53v7.58h3.81V22.2Z"/><path class="cls-1" d="M144.2,22.2V14.55H142V13h6v1.55h-2.24V22.2Z"/><path class="cls-1" d="M149,22.2V13h5.62v1.55h-4.09V16.6h3.81v1.55h-3.81v2.5h4.24V22.2Z"/><path class="cls-1" d="M156,22.2V13h3.22a4.45,4.45,0,0,1,1.77.25,1.82,1.82,0,0,1,.87.88,3.14,3.14,0,0,1,.33,1.44,2.88,2.88,0,0,1-.5,1.71,2.26,2.26,0,0,1-1.5.85,4,4,0,0,1,.82.78,9.6,9.6,0,0,1,.86,1.49l.93,1.79H161l-1.11-2a12.37,12.37,0,0,0-.81-1.35,1,1,0,0,0-.46-.38,2.16,2.16,0,0,0-.76-.11h-.3v3.84Zm1.53-5.31h1.13a4.89,4.89,0,0,0,1.38-.11.91.91,0,0,0,.43-.39,1.52,1.52,0,0,0,.16-.69,1.24,1.24,0,0,0-.21-.75.85.85,0,0,0-.58-.36,10.29,10.29,0,0,0-1.11,0h-1.2Z"/><path class="cls-1" d="M163.69,22.2V13h1.49l3.1,6.14V13h1.43v9.2h-1.54l-3.06-6v6Z"/><path class="cls-1" d="M178.16,22.2h-1.67l-.65-2.09h-3l-.62,2.09h-1.63l3-9.2h1.61Zm-2.82-3.64-1.05-3.41-1,3.41Z"/><path class="cls-1" d="M179.89,22.2V14.55h-2.25V13h6v1.55h-2.25V22.2Z"/><path class="cls-1" d="M184.61,22.2V13h1.53v9.2Z"/><path class="cls-1" d="M189.53,22.2l-2.7-9.2h1.66l1.91,6.81L192.26,13h1.62l-2.71,9.21Z"/><path class="cls-1" d="M200.71,22.2h-1.66l-.65-2.09h-3l-.63,2.09h-1.62l2.95-9.2h1.62Zm-2.82-3.64-1-3.41-1,3.41Z"/><path class="cls-1" d="M59,28h2.87a4.6,4.6,0,0,1,1.47.18,2.47,2.47,0,0,1,1.17.84,4.05,4.05,0,0,1,.74,1.5,8,8,0,0,1,.26,2.17,7.21,7.21,0,0,1-.24,2,4.31,4.31,0,0,1-.83,1.62,2.65,2.65,0,0,1-1.1.74,4.1,4.1,0,0,1-1.39.19H59Zm1.57,1.56v6.09h1.17a3.7,3.7,0,0,0,.94-.08,1.41,1.41,0,0,0,.64-.39,2.08,2.08,0,0,0,.41-.89,7.31,7.31,0,0,0,.16-1.68A6.48,6.48,0,0,0,63.68,31a2.15,2.15,0,0,0-.45-.89,1.39,1.39,0,0,0-.72-.44,6.22,6.22,0,0,0-1.29-.08Z"/><path class="cls-1" d="M66.79,37.24V28h5.75V29.6H68.35v2h3.9v1.55h-3.9v2.5h4.34v1.55Z"/><path class="cls-1" d="M77.07,37.24V28.11h1.57v7.58h3.89v1.55Z"/><path class="cls-1" d="M83.6,37.24V28h1.57v9.2Z"/><path class="cls-1" d="M88.41,37.24V29.6H86.1V28h6.16V29.6H90v7.64Z"/><path class="cls-1" d="M93.06,27.51l.73-1.87h1.66L94,27.51Zm.18,9.73V28H94.8v9.2Z"/><path class="cls-1" d="M99.91,33.86V32.31h3.37V36a4.28,4.28,0,0,1-1.42,1,4.44,4.44,0,0,1-1.9.43,3.64,3.64,0,0,1-2.12-.61,3.69,3.69,0,0,1-1.36-1.73A6.41,6.41,0,0,1,96,32.61a6.09,6.09,0,0,1,.5-2.56A3.76,3.76,0,0,1,98,28.34a3.57,3.57,0,0,1,1.86-.46,3.3,3.3,0,0,1,2.26.72,3.36,3.36,0,0,1,1,2l-1.55.34a2,2,0,0,0-.62-1.07,1.61,1.61,0,0,0-1.13-.39,2,2,0,0,0-1.63.77,3.62,3.62,0,0,0-.61,2.29A4.17,4.17,0,0,0,98.25,35a2,2,0,0,0,1.62.82,2.24,2.24,0,0,0,1-.23,3.21,3.21,0,0,0,.85-.56V33.87Z"/><path class="cls-1" d="M104.7,37.24V28h1.56v9.2Z"/><path class="cls-1" d="M107.42,32.7a6.77,6.77,0,0,1,.36-2.36,4.44,4.44,0,0,1,.72-1.27,3.06,3.06,0,0,1,1-.82,3.75,3.75,0,0,1,1.68-.37,3.37,3.37,0,0,1,2.74,1.26,5.38,5.38,0,0,1,1,3.51,5.36,5.36,0,0,1-1,3.49,3.33,3.33,0,0,1-2.73,1.26,3.38,3.38,0,0,1-2.76-1.25A5.33,5.33,0,0,1,107.42,32.7Zm1.62-.07a3.89,3.89,0,0,0,.61,2.38,1.87,1.87,0,0,0,2.61.46,1.72,1.72,0,0,0,.47-.46,4,4,0,0,0,.6-2.41,4,4,0,0,0-.58-2.36,1.83,1.83,0,0,0-1.55-.77,1.85,1.85,0,0,0-1.56.78,4,4,0,0,0-.61,2.38Z"/><path class="cls-1" d="M115.78,34.25l1.52-.18a2.37,2.37,0,0,0,.56,1.34,1.53,1.53,0,0,0,1.13.43,1.57,1.57,0,0,0,1.14-.38,1.2,1.2,0,0,0,.39-.89,1,1,0,0,0-.16-.56,1.24,1.24,0,0,0-.57-.39,12.72,12.72,0,0,0-1.25-.41,3.81,3.81,0,0,1-1.77-.91,2.77,2.77,0,0,1-.38-3.16,2.26,2.26,0,0,1,1-.94,3.5,3.5,0,0,1,1.53-.32,3,3,0,0,1,2.2.76,2.92,2.92,0,0,1,.77,2l-1.56.08a1.69,1.69,0,0,0-.44-1,1.36,1.36,0,0,0-1-.31,1.6,1.6,0,0,0-1.07.33.73.73,0,0,0-.25.58.8.8,0,0,0,.24.56,3.55,3.55,0,0,0,1.44.61,6.85,6.85,0,0,1,1.69.67,2.36,2.36,0,0,1,.87.93,3.37,3.37,0,0,1-.06,2.95,2.43,2.43,0,0,1-1,1,3.78,3.78,0,0,1-1.69.33,3.05,3.05,0,0,1-2.26-.8A3.85,3.85,0,0,1,115.78,34.25Z"/><path class="cls-1" d="M126.41,28h2.87a4.63,4.63,0,0,1,1.48.18,2.59,2.59,0,0,1,1.15.84,4.05,4.05,0,0,1,.74,1.5,8,8,0,0,1,.26,2.17,7.21,7.21,0,0,1-.24,2,4.31,4.31,0,0,1-.83,1.62,2.65,2.65,0,0,1-1.1.74,4.1,4.1,0,0,1-1.39.19H126.4ZM128,29.6v6.09h1.15a3.78,3.78,0,0,0,1-.08,1.33,1.33,0,0,0,.64-.39,2.09,2.09,0,0,0,.42-.89,7.3,7.3,0,0,0,.15-1.68,6.47,6.47,0,0,0-.15-1.64,2.27,2.27,0,0,0-.45-.89,1.42,1.42,0,0,0-.73-.44,6.08,6.08,0,0,0-1.28-.08Z"/><path class="cls-1" d="M134.24,37.24V28H140V29.6h-4.19v2h3.9v1.55h-3.9v2.5h4.34v1.55Z"/><path class="cls-1" d="M149.45,33.86l1.52.58a4.29,4.29,0,0,1-1.15,2.24,3.05,3.05,0,0,1-2.07.73,3.11,3.11,0,0,1-2.54-1.26,5.35,5.35,0,0,1-1-3.42,5.64,5.64,0,0,1,1-3.57,3.19,3.19,0,0,1,2.63-1.27,3,3,0,0,1,2.31,1,3.82,3.82,0,0,1,.79,1.69L149.4,31a2,2,0,0,0-.57-1.13,1.51,1.51,0,0,0-1.07-.41,1.64,1.64,0,0,0-1.39.73,4.1,4.1,0,0,0-.54,2.38,4.47,4.47,0,0,0,.53,2.49,1.64,1.64,0,0,0,1.37.74,1.48,1.48,0,0,0,1.08-.47A2.93,2.93,0,0,0,149.45,33.86Z"/><path class="cls-1" d="M152,32.7a7,7,0,0,1,.35-2.36,4.69,4.69,0,0,1,.72-1.27,3.2,3.2,0,0,1,1-.82,3.71,3.71,0,0,1,1.67-.37,3.35,3.35,0,0,1,2.74,1.26,5.32,5.32,0,0,1,1,3.51,5.36,5.36,0,0,1-1,3.49,3.31,3.31,0,0,1-2.73,1.26A3.37,3.37,0,0,1,153,36.15,5.33,5.33,0,0,1,152,32.7Zm1.61-.07a4,4,0,0,0,.61,2.38,1.87,1.87,0,0,0,1.55.8,1.81,1.81,0,0,0,1.53-.8,3.9,3.9,0,0,0,.6-2.4,4,4,0,0,0-.57-2.36,2,2,0,0,0-2.72-.4,1.9,1.9,0,0,0-.4.4A3.94,3.94,0,0,0,153.61,32.63Z"/><path class="cls-1" d="M160.77,37.24V28h1.52l3.18,6.15V28h1.45v9.2h-1.57l-3.13-6v6Z"/><path class="cls-1" d="M168.18,34.25l1.52-.18a2.44,2.44,0,0,0,.56,1.34,1.57,1.57,0,0,0,1.14.43,1.61,1.61,0,0,0,1.15-.38,1.2,1.2,0,0,0,.39-.89,1,1,0,0,0-.16-.56,1.33,1.33,0,0,0-.58-.39c-.19-.08-.6-.22-1.26-.41a3.82,3.82,0,0,1-1.76-.91,2.72,2.72,0,0,1-.38-3.16,2.17,2.17,0,0,1,1-.95,3.47,3.47,0,0,1,1.53-.32,2.67,2.67,0,0,1,3,2.79l-1.57.08a1.62,1.62,0,0,0-.43-1,1.37,1.37,0,0,0-1-.31,1.52,1.52,0,0,0-1.07.33.71.71,0,0,0-.25.58.79.79,0,0,0,.23.56,3.69,3.69,0,0,0,1.45.61,7.24,7.24,0,0,1,1.69.66,2.46,2.46,0,0,1,.87.94,3.11,3.11,0,0,1,.31,1.47,3.21,3.21,0,0,1-.37,1.48,2.43,2.43,0,0,1-1,1,3.78,3.78,0,0,1-1.69.33,3,3,0,0,1-2.26-.81A3.71,3.71,0,0,1,168.18,34.25Z"/><path class="cls-1" d="M175.8,28h1.56v5a13,13,0,0,0,.06,1.53,1.53,1.53,0,0,0,.48.91,1.5,1.5,0,0,0,1,.34,1.4,1.4,0,0,0,1-.32,1.35,1.35,0,0,0,.41-.8,13.47,13.47,0,0,0,.07-1.56V28H182v4.83a15.16,15.16,0,0,1-.12,2.34,2.82,2.82,0,0,1-.47,1.16,2.4,2.4,0,0,1-.92.75,3.28,3.28,0,0,1-1.49.29,3.72,3.72,0,0,1-1.68-.3,2.49,2.49,0,0,1-.91-.79,3,3,0,0,1-.44-1A13.14,13.14,0,0,1,175.8,33Z"/><path class="cls-1" d="M183.62,37.24V28H186l1.41,6.28,1.4-6.28h2.35v9.2h-1.45V30l-1.54,7.23h-1.51L185.09,30v7.23Z"/><path class="cls-1" d="M192.35,32.7a7,7,0,0,1,.35-2.36,4.47,4.47,0,0,1,.73-1.27,3.06,3.06,0,0,1,1-.82,3.71,3.71,0,0,1,1.67-.37,3.38,3.38,0,0,1,2.75,1.26,5.44,5.44,0,0,1,1,3.51,5.42,5.42,0,0,1-1,3.49,3.31,3.31,0,0,1-2.73,1.26,3.37,3.37,0,0,1-2.75-1.25A5.33,5.33,0,0,1,192.35,32.7Zm1.61-.07a4,4,0,0,0,.61,2.38,1.87,1.87,0,0,0,1.55.8,1.81,1.81,0,0,0,1.53-.8,3.89,3.89,0,0,0,.61-2.4,4,4,0,0,0-.58-2.36,2,2,0,0,0-2.72-.4,2.16,2.16,0,0,0-.4.4,3.94,3.94,0,0,0-.6,2.38Z"/><path class="cls-1" d="M23.48,47A23.48,23.48,0,1,1,47,23.48,23.47,23.47,0,0,1,23.48,47Zm0-44.38a20.91,20.91,0,1,0,20.9,20.91h0A20.94,20.94,0,0,0,23.48,2.57Z"/><path class="cls-1" d="M20.15,29.78c0,2.44-3.52.17-6.36-1.8s-6.67-3.3-3.93-5.31c1-.7,1.84-1.2,6.36,1.8C21,27.65,20.16,27.55,20.15,29.78Z"/><path class="cls-1" d="M19.19,9.91c.1-2.43,3.52,0,6.28,2s6.54,3.54,3.72,5.45c-1,.66-1.88,1.13-6.28-2C18.24,12,19.09,12.14,19.19,9.91Z"/><path class="cls-1" d="M13.65,22s3.12,1.72,5.64,3.47a12,12,0,0,0,3.52-1.41l13.55,8.19s3.74.81,2.22-2.93l-13.75-8.1.24-3.51a30.24,30.24,0,0,1-5.7-3.92S14.34,16.56,13.65,22Z"/><rect class="cls-1" x="8.55" y="35.42" width="17.29" height="1.52"/><rect class="cls-1" x="9.86" y="32.36" width="14.77" height="3.06"/><path class="cls-2" d="M30.2,14.27l7,8.1A2.44,2.44,0,0,0,41,21.88L51.89,6.09l1.52-2.21a2.43,2.43,0,0,0-.87-3.3,2.46,2.46,0,0,0-3.3.86L38.38,17.23l-1.52,2.22L40.65,19l-7-8.1a2.41,2.41,0,0,0-3.41,3.41Z"/></g></g></svg>